<svg width="106" height="44" viewBox="0 0 106 44" fill="none" xmlns="http://www.w3.org/2000/svg">
<path id="Vector" fill-rule="evenodd" clip-rule="evenodd" d="M34.1635 3.24936V24.5771H42.639V12.4933C42.639 11.5308 42.926 10.8168 43.4998 10.3511C44.0737 9.8854 44.7065 9.65226 45.3977 9.65226C46.0895 9.65226 46.7224 9.8854 47.2963 10.3511C47.8701 10.8168 48.1571 11.5308 48.1571 12.4933V24.5771H56.5882V9.6077C56.5882 7.71387 55.9991 6.18806 54.8228 5.03089C53.6459 3.87372 52.2556 3.13645 50.6513 2.82091C49.0477 2.50538 47.4069 2.63293 45.7297 3.2048C44.0524 3.77546 42.6986 4.85756 41.6688 6.45111V3.24936H34.1635ZM73.5818 11.5461H82.013C82.1011 10.7649 81.9692 9.85549 81.6154 8.81855C81.2628 7.78161 80.6439 6.79717 79.7619 5.8652C78.8786 4.93324 77.7314 4.15141 76.3186 3.52034C74.9058 2.88927 73.1842 2.57312 71.1538 2.57312C68.417 2.54321 66.1288 3.08457 64.2899 4.19658C62.4509 5.3092 61.0758 6.70684 60.1627 8.39072C59.2509 10.074 58.7876 11.908 58.7724 13.8916C58.7585 15.8751 59.1913 17.7091 60.0752 19.3924C60.9585 21.0757 62.2965 22.466 64.0917 23.5633C65.8868 24.6607 68.124 25.1789 70.8012 25.1191C72.3599 25.1191 73.8396 24.9537 75.2372 24.6235C76.636 24.2927 77.8494 23.7739 78.8786 23.0678C79.8962 22.3756 80.7238 21.4374 81.2853 20.3396C81.8586 19.2276 82.1011 17.8745 82.013 16.2816H73.9344C73.6414 17.2435 73.2803 17.9728 72.8529 18.4684C72.4268 18.964 71.7429 19.2117 70.8012 19.2117C69.9775 19.2423 69.2936 19.0018 68.7483 18.4903C68.2042 17.9795 67.8066 17.3252 67.5562 16.5288C67.3069 15.7323 67.189 14.8607 67.2036 13.9135C67.2188 12.9669 67.3653 12.0801 67.6455 11.2537C67.9246 10.4268 68.3294 9.74319 68.8589 9.20183C69.3884 8.66048 70.0359 8.39011 70.8012 8.39011C71.7429 8.39011 72.4122 8.67574 72.8092 9.24639C73.2067 9.81765 73.4639 10.5842 73.5818 11.5461ZM96.8436 9.6077H104.348C104.436 8.82588 104.311 8.03734 103.974 7.24026C103.634 6.44379 103.068 5.72971 102.273 5.09863C101.479 4.46756 100.427 3.94879 99.1178 3.54292C97.8084 3.13706 96.2266 2.93382 94.3718 2.93382C93.5773 2.93382 92.79 3.0095 92.0101 3.15903C91.2863 3.29559 90.5715 3.47637 89.8696 3.70038C89.0729 3.95415 88.292 4.25537 87.531 4.60244C86.5595 5.26342 85.8604 5.98544 85.4343 6.76665C85.0081 7.54847 84.7577 8.31504 84.6841 9.06634C84.6106 9.81765 84.647 10.5091 84.7948 11.1402C84.9419 11.7713 85.089 12.2522 85.2367 12.583C85.5018 13.1244 85.9942 13.6578 86.7152 14.1839C87.4374 14.71 88.297 15.1983 89.2976 15.6493C90.3515 16.1197 91.4356 16.519 92.5426 16.8443C93.705 17.1897 94.8886 17.4528 96.0953 17.6328C96.5664 17.7232 96.905 17.9118 97.1117 18.1968C97.3172 18.4824 97.3907 18.7827 97.3312 19.0988C97.2728 19.415 97.0819 19.6927 96.7579 19.9331C96.4339 20.1736 95.9779 20.3085 95.3889 20.339C94.6539 20.339 93.8892 20.1962 93.094 19.9106C92.2995 19.6255 91.7998 19.0616 91.5931 18.22H83.5157C83.751 19.8129 84.2148 21.083 84.906 22.0302C85.5984 22.9768 86.4434 23.7062 87.4434 24.217C88.4441 24.7285 89.5699 25.0666 90.8216 25.232C92.0721 25.3974 93.3743 25.4791 94.7281 25.4791C96.7585 25.4791 98.5014 25.2387 99.9586 24.7577C101.416 24.2768 102.578 23.6378 103.446 22.8413C104.314 22.0442 104.895 21.1275 105.19 20.0906C105.484 19.0537 105.469 17.9636 105.146 16.8211C104.852 15.7689 104.343 14.9126 103.622 14.251C102.903 13.5911 102.083 13.0507 101.194 12.6502C100.287 12.2409 99.3406 11.9238 98.3701 11.7036C97.4591 11.4946 96.5468 11.2916 95.6333 11.0944C94.7949 10.9144 94.0885 10.7191 93.5153 10.5085C92.9408 10.2986 92.5949 9.9977 92.4776 9.60709C92.3305 9.00592 92.4624 8.5549 92.8739 8.25462C93.2861 7.95373 93.7718 7.80359 94.3305 7.80359C94.8892 7.80359 95.4278 7.95373 95.9415 8.25462C96.4545 8.55551 96.7561 9.00592 96.8436 9.6077ZM1.98848 41.5611V37.5428C1.98848 37.1674 2.028 36.7256 2.29548 36.3636C2.52223 36.0554 2.80248 35.9352 3.10887 35.9352C3.44261 35.9352 3.65599 36.0823 3.77575 36.2562C3.94961 36.5113 3.97575 36.8861 3.97575 37.2346V41.5611H5.96424V37.5428C5.96424 37.248 5.99038 36.7658 6.24388 36.4045C6.33815 36.257 6.46865 36.1364 6.62281 36.0542C6.77698 35.972 6.94963 35.931 7.12413 35.9352C7.48463 35.9352 7.68463 36.0823 7.79102 36.2562C7.93813 36.4839 7.9515 36.8055 7.9515 37.2346V41.5611H9.93938V36.7256C9.93938 36.3905 9.89987 35.6947 9.41901 35.1857C9.12538 34.8641 8.63237 34.5955 7.87187 34.5955C7.41776 34.5955 6.96425 34.6895 6.52412 34.9709C6.17522 35.1902 5.89729 35.5066 5.72411 35.8815C5.6302 35.5797 5.46015 35.3074 5.23048 35.0911C4.92349 34.8098 4.48336 34.5955 3.84262 34.5955C2.89549 34.5955 2.24198 35.1589 1.89487 35.8284H1.88149V34.7298H0V41.5611H1.98848ZM13.1242 36.833C13.2045 36.4576 13.4312 36.2434 13.6045 36.136C13.8841 35.9621 14.2185 35.9352 14.4981 35.9352C14.6981 35.9352 15.2051 35.948 15.4592 36.2434C15.6459 36.4576 15.6592 36.8592 15.6592 37.0466V37.1943L15.0185 37.2211C14.4714 37.2474 13.2574 37.3548 12.5102 37.663C11.3491 38.1452 11.0561 38.9624 11.0561 39.6454C11.0561 40.2618 11.323 40.8239 11.7504 41.1724C12.1905 41.5343 12.8312 41.6966 13.458 41.6966C14.872 41.6966 15.486 40.9307 15.7395 40.476C15.7522 40.9307 15.7924 41.2932 15.8459 41.5605H17.7809C17.6466 41.0811 17.5793 40.5853 17.5809 40.0872V37.4488C17.5809 36.9398 17.6076 36.3496 17.3407 35.8015C16.8337 34.7432 15.7 34.5949 14.579 34.5949C13.6981 34.5949 12.9911 34.7158 12.458 35.0234C12.1623 35.1954 11.9053 35.4271 11.7032 35.7038C11.501 35.9805 11.3581 36.2961 11.2835 36.631L13.1242 36.833ZM15.6592 38.2794V38.6414C15.6592 39.4177 15.3389 39.8199 15.2994 39.8602C15.0319 40.1812 14.565 40.3558 14.165 40.3558C13.8981 40.3558 13.6179 40.2892 13.4312 40.1415C13.3378 40.0719 13.2625 39.9808 13.2114 39.8759C13.1603 39.771 13.135 39.6553 13.1376 39.5385C13.1376 39.2578 13.244 39.057 13.351 38.9227C13.7242 38.4534 14.3911 38.3863 15.0592 38.3332L15.6592 38.2794ZM21.0843 32.3721H19.0964V41.5611H21.0843V39.5916L22.0581 38.4265L23.6332 41.5611H25.7281L23.4065 37.0875L25.474 34.7292H23.646L21.0843 37.7027V32.3721ZM28.4047 34.7292H26.4163V41.5605H28.4047V34.7292ZM28.4315 32.2916H26.3901V33.8589H28.4315V32.2916ZM31.9088 41.5611V37.5965C31.9088 37.2614 31.9489 36.6584 32.3495 36.2703C32.5578 36.059 32.8407 35.9387 33.1367 35.9352C33.51 35.9352 33.724 36.0823 33.817 36.1897C34.0437 36.457 34.0577 36.8995 34.0577 37.2077V41.5611H36.0456V36.8061C36.0456 36.4979 36.0195 35.6538 35.4182 35.1045C35.0717 34.7841 34.4711 34.5955 33.8845 34.5955C33.4972 34.5955 33.0705 34.6767 32.7106 34.8775C32.5635 34.9575 32.1234 35.2254 31.803 35.8021H31.7768V34.7298H29.9221V41.5611H31.9088ZM44.0457 33.4298C43.8591 33.3633 43.7387 33.3499 43.526 33.3499C43.112 33.3499 42.6719 33.3627 42.2451 33.7515C42.0177 33.9523 41.7649 34.3001 41.7247 34.7963C41.5782 34.7426 41.1113 34.5949 40.3241 34.5949C39.6566 34.5949 38.856 34.7561 38.3228 35.0905C37.9089 35.3584 37.3617 35.8675 37.3617 36.8189C37.3617 37.046 37.3879 37.9975 38.3891 38.4662V38.4925C37.6286 38.6401 37.228 39.2291 37.228 39.873C37.228 40.2075 37.3751 40.6762 37.8687 40.9301C37.2681 41.1181 36.8414 41.6027 36.8414 42.2588C36.8414 42.9289 37.228 43.3433 37.8554 43.6247C38.5356 43.9329 39.3764 44 40.4299 44C41.7375 44 42.5381 43.8657 43.0986 43.5575C43.926 43.115 44.1394 42.4461 44.1394 41.8566C44.1394 41.3988 44.019 40.7159 43.2719 40.3002C42.7916 40.0329 42.2712 39.9523 41.4311 39.9114L39.6566 39.8315C39.2031 39.804 39.0426 39.6704 39.0426 39.4299C39.0426 39.0948 39.2961 38.9746 39.6834 38.9746C39.977 38.9746 40.1904 39.0411 40.6439 39.0411C41.298 39.0411 42.0177 38.8403 42.4719 38.5321C42.7437 38.3529 42.9666 38.1084 43.1203 37.8207C43.274 37.533 43.3537 37.2113 43.3521 36.8849C43.3521 36.5766 43.2859 35.8266 42.6317 35.2913C42.712 35.1027 42.8451 34.9965 42.8852 34.9697C43.0852 34.822 43.312 34.8085 43.512 34.8085C43.6852 34.8085 43.8719 34.8214 44.0451 34.8488L44.0457 33.4298ZM40.3636 37.9175C40.177 37.9175 39.87 37.9047 39.6031 37.663C39.3764 37.4488 39.256 37.1272 39.256 36.8196C39.256 36.4174 39.4432 36.0957 39.7101 35.9083C39.9502 35.7472 40.1904 35.7204 40.377 35.7204C40.6171 35.7204 40.9241 35.8015 41.1369 35.9883C41.4038 36.2159 41.4572 36.537 41.4572 36.8055C41.4572 37.1668 41.3375 37.4616 41.1503 37.649C40.8974 37.8907 40.5502 37.9175 40.3636 37.9175ZM41.0706 41.4806C41.6311 41.5074 42.312 41.5343 42.312 42.0726C42.312 42.2063 42.2585 42.5145 41.7916 42.7012C41.4317 42.8489 40.9782 42.8355 40.5642 42.8355C39.9508 42.8355 39.5903 42.7958 39.2833 42.7012C38.7235 42.5407 38.6031 42.2325 38.6031 42.0049C38.6031 41.5605 39.07 41.4269 39.2967 41.4L41.0706 41.4806ZM50.1249 32.3721H47.9905V41.5611H50.1249V32.3721ZM51.5693 32.3721V34.0603H53.7304V41.5611H55.8654V34.0603H58.0265V32.3721H51.5693ZM65.2479 32.3721H63.2594V41.5611H65.2479V37.5965C65.2479 37.1406 65.3677 36.6859 65.5543 36.4174C65.6875 36.2166 65.9951 35.9352 66.5282 35.9352C66.7422 35.9352 67.0091 35.9749 67.1957 36.2294C67.2632 36.3368 67.3963 36.5779 67.3963 37.2077V41.5611H69.3842V37.021C69.3842 36.4448 69.3307 35.6544 68.8237 35.1454C68.4638 34.7707 67.837 34.5961 67.2638 34.5961C66.753 34.589 66.2546 34.7543 65.8485 35.0655C65.6122 35.2424 65.4092 35.4602 65.2491 35.7088V32.3721H65.2479ZM72.304 36.833C72.3836 36.4576 72.6104 36.2434 72.7836 36.136C73.0639 35.9621 73.3976 35.9352 73.6779 35.9352C73.8785 35.9352 74.3855 35.948 74.6384 36.2434C74.825 36.4576 74.839 36.8592 74.839 37.0466V37.1943L74.1976 37.2211C73.6517 37.2474 72.4371 37.3548 71.69 37.663C70.5289 38.1452 70.2353 38.9624 70.2353 39.6454C70.2353 40.2618 70.5021 40.8239 70.9301 41.1724C71.3696 41.5343 72.0104 41.6966 72.6377 41.6966C74.0517 41.6966 74.6657 40.9307 74.9186 40.476C74.9314 40.9307 74.9721 41.2932 75.0256 41.5605H76.96C76.826 41.0811 76.7589 40.5852 76.7606 40.0872V37.4488C76.7606 36.9398 76.7867 36.3496 76.5205 35.8015C76.0135 34.7432 74.8797 34.5949 73.7587 34.5949C72.8778 34.5949 72.1702 34.7158 71.6371 35.0234C71.3414 35.1954 71.0844 35.4271 70.8823 35.7038C70.6802 35.9805 70.5373 36.2961 70.4626 36.631L72.304 36.833ZM74.839 38.2794V38.6414C74.839 39.4177 74.5186 39.8199 74.4791 39.8602C74.2122 40.1812 73.7441 40.3558 73.3441 40.3558C73.0779 40.3558 72.797 40.2892 72.6104 40.1415C72.5173 40.0717 72.4421 39.9805 72.3912 39.8756C72.3402 39.7708 72.3149 39.6552 72.3174 39.5385C72.3174 39.2578 72.4243 39.057 72.5313 38.9227C72.904 38.4534 73.5715 38.3863 74.239 38.3332L74.839 38.2794ZM80.0002 43.7595V40.6902C80.4135 41.3604 81.0269 41.6966 81.8415 41.6966C83.1619 41.6966 84.4835 40.6499 84.4835 38.078C84.4835 36.0554 83.5893 34.5949 81.9212 34.5949C81.0676 34.5949 80.267 35.0234 79.8543 35.8278V34.7292H78.0129V43.7595H80.0002ZM80.0002 37.3548C80.0002 36.5376 80.4537 35.9352 81.1613 35.9352C81.9212 35.9352 82.402 36.5644 82.402 38.1183C82.402 39.2706 82.1479 40.3552 81.1613 40.3552C80.4403 40.3552 80.0002 39.7796 80.0002 38.8281V37.3548ZM87.3237 43.7595V40.6902C87.7371 41.3604 88.3505 41.6966 89.1651 41.6966C90.4854 41.6966 91.8071 40.6499 91.8071 38.078C91.8071 36.0554 90.9128 34.5949 89.2447 34.5949C88.3912 34.5949 87.5906 35.0234 87.1766 35.8278V34.7292H85.3364V43.7595H87.3237ZM87.3237 37.3548C87.3237 36.5376 87.7772 35.9352 88.4848 35.9352C89.2447 35.9352 89.7256 36.5644 89.7256 38.1183C89.7256 39.2706 89.4714 40.3552 88.4848 40.3552C87.7638 40.3552 87.3237 39.7796 87.3237 38.8281V37.3548ZM97.116 39.2969C97.0625 39.5654 96.9415 39.8059 96.7822 39.9676C96.5956 40.155 96.2752 40.3558 95.7816 40.3558C95.1415 40.3558 94.7676 40.0207 94.5682 39.6325C94.4065 39.3377 94.3275 38.9227 94.3402 38.548H99.0503V38.1995C99.0503 37.0472 98.6765 36.23 98.2631 35.735C97.8096 35.1863 96.9962 34.5961 95.702 34.5961C95.1013 34.5961 94.2472 34.6901 93.46 35.3603C92.9256 35.8156 92.2581 36.659 92.2581 38.1592C92.2581 39.4452 92.7651 40.2764 93.2332 40.7445C93.7402 41.2535 94.5676 41.6979 95.6874 41.6979C96.5956 41.6979 97.3281 41.455 97.8625 41.0796C98.4143 40.6942 98.8116 40.1244 98.9835 39.472L97.116 39.2969ZM94.3396 37.4085C94.3396 36.9929 94.4867 36.6053 94.7135 36.3636C94.8447 36.227 95.0023 36.1185 95.1766 36.0448C95.351 35.9712 95.5384 35.9339 95.7275 35.9352C96.2472 35.9352 96.5548 36.1897 96.7415 36.4442C96.9281 36.7121 97.0217 37.0875 97.0084 37.4085H94.3396ZM101.864 41.5611V37.5965C101.864 37.2614 101.903 36.6584 102.303 36.2703C102.512 36.0591 102.795 35.9388 103.092 35.9352C103.464 35.9352 103.678 36.0823 103.772 36.1897C103.999 36.457 104.012 36.8995 104.012 37.2077V41.5611H106V36.8061C106 36.4979 105.974 35.6538 105.373 35.1045C105.027 34.7841 104.426 34.5955 103.839 34.5955C103.452 34.5955 103.025 34.6767 102.665 34.8775C102.518 34.9575 102.078 35.2254 101.758 35.8021H101.731V34.7298H99.8759V41.5611H101.864ZM0.576302 0H23.5171C20.5371 1.35248 17.3389 5.63084 14.799 10.1558C13.4173 12.6196 12.5771 14.873 11.3929 17.3338C7.60803 25.1929 5.03535 27.6824 3.59034 27.6495C2.65233 27.6287 2.15627 26.9634 1.89183 26.3428L1.9356 26.344C3.07543 26.344 4.00432 25.4114 4.00432 24.2677C4.00432 23.1239 3.07543 22.1913 1.9356 22.1913C1.41583 22.1913 0.940442 22.3842 0.576302 22.704V0ZM28.885 5.73459V28.3025H6.20558C8.83906 26.9805 11.6263 23.4425 13.965 19.5193C15.917 16.2437 17.0647 13.111 18.7395 9.78042C22.1767 2.9442 24.5415 0.732387 25.9044 0.762904C26.8424 0.784265 27.3385 1.44952 27.6023 2.06899L27.5585 2.06838C26.4193 2.06838 25.4904 3.00096 25.4904 4.1447C25.4904 5.28845 26.4193 6.22163 27.5585 6.22163C28.0441 6.22175 28.5141 6.0492 28.885 5.73459Z" fill="#F2F2F2"/>
</svg>
