<svg width="106" height="17" viewBox="0 0 106 17" fill="none" xmlns="http://www.w3.org/2000/svg">
<path d="M4.02203 16.6401C1.8164 16.6401 0 15.5333 0 13.0592V12.929C0 9.93417 2.59486 8.89247 5.77356 8.89247H7.26561V8.30652C7.26561 7.06951 6.74663 6.35334 5.4492 6.35334C4.28152 6.35334 3.69767 7.0044 3.6328 7.91588H0.389229C0.648715 5.18144 2.78947 3.87932 5.64382 3.87932C8.56304 3.87932 10.7038 5.11633 10.7038 8.17631V16.3796H7.39535V14.9473C6.74663 15.8588 5.64382 16.6401 4.02203 16.6401ZM7.26561 12.3431V11.1712H5.9033C4.21665 11.1712 3.37332 11.6269 3.37332 12.7337V12.8639C3.37332 13.7103 3.89229 14.2963 5.05998 14.2963C6.22766 14.2312 7.26561 13.5801 7.26561 12.3431ZM18.4235 16.6401C15.0502 16.6401 12.5851 14.5567 12.5851 10.3899V10.1946C12.5851 6.02781 15.1799 3.81421 18.4235 3.81421C21.213 3.81421 23.4835 5.24654 23.743 8.43673H20.4994C20.3048 7.26483 19.6561 6.48356 18.4884 6.48356C17.0612 6.48356 16.0233 7.65546 16.0233 10.0644V10.455C16.0233 12.929 16.9315 14.0358 18.4884 14.0358C19.6561 14.0358 20.4994 13.1895 20.694 11.8222H23.8078C23.6132 14.6869 21.7319 16.6401 18.4235 16.6401ZM31.1383 16.6401C27.765 16.6401 25.2999 14.5567 25.2999 10.3899V10.1946C25.2999 6.02781 27.8947 3.81421 31.1383 3.81421C33.9278 3.81421 36.1983 5.24654 36.4578 8.43673H33.2142C33.0196 7.26483 32.3709 6.48356 31.2032 6.48356C29.776 6.48356 28.7381 7.65546 28.7381 10.0644V10.455C28.7381 12.929 29.6463 14.0358 31.2032 14.0358C32.3709 14.0358 33.2142 13.1895 33.4088 11.8222H36.5226C36.328 14.6869 34.4468 16.6401 31.1383 16.6401ZM43.918 16.6401C40.4149 16.6401 38.0147 14.5567 38.0147 10.455V10.1946C38.0147 6.09292 40.5447 3.81421 43.8531 3.81421C46.9021 3.81421 49.4321 5.50697 49.4321 9.60864V11.1061H41.4529C41.5826 13.3197 42.5557 14.166 43.9829 14.166C45.2803 14.166 45.9939 13.4499 46.2534 12.6035H49.4321C49.0428 14.8822 47.0967 16.6401 43.918 16.6401ZM41.5177 8.82737H46.0588C45.9939 7.0044 45.1505 6.22313 43.7882 6.22313C42.7503 6.28824 41.7772 6.87419 41.5177 8.82737ZM51.508 4.13974H54.9461V5.96271C55.53 4.7908 56.7625 3.87932 58.6438 3.87932C60.8494 3.87932 62.3415 5.24654 62.3415 8.17631V16.3796H58.9033V8.69715C58.9033 7.26483 58.3195 6.61377 57.0869 6.61377C55.9192 6.61377 54.9461 7.32993 54.9461 8.89247V16.3796H51.508V4.13974ZM68.634 0.428711V4.13974H70.9694V6.67887H68.634V12.4733C68.634 13.3848 69.0233 13.8405 69.8666 13.8405C70.3856 13.8405 70.7099 13.7754 71.0343 13.6452V16.3145C70.645 16.4448 69.9314 16.575 69.0881 16.575C66.4284 16.575 65.1958 15.338 65.1958 12.8639V6.67887H63.7687V4.13974H65.1958V1.86104L68.634 0.428711ZM83.8139 16.3796H80.4406V14.5567C79.8568 15.7286 78.6891 16.6401 76.8727 16.6401C74.6671 16.6401 73.0453 15.2728 73.0453 12.4082V4.13974H76.4835V11.9524C76.4835 13.3848 77.0673 14.0358 78.235 14.0358C79.4027 14.0358 80.3758 13.2546 80.3758 11.7571V4.13974H83.8139V16.3796ZM86.3439 4.13974H89.7821V6.41845C90.4957 4.7908 91.6634 4.00953 93.4798 4.00953V7.39504C91.1444 7.39504 89.7821 8.1112 89.7821 10.1295V16.4448H86.3439V4.13974ZM100.421 16.6401C96.918 16.6401 94.5177 14.5567 94.5177 10.455V10.1946C94.5177 6.09292 97.0477 3.81421 100.356 3.81421C103.405 3.81421 105.935 5.50697 105.935 9.60864V11.1061H98.0208C98.1506 13.3197 99.1236 14.166 100.551 14.166C101.848 14.166 102.562 13.4499 102.821 12.6035H106C105.481 14.8822 103.6 16.6401 100.421 16.6401ZM97.9559 8.82737H102.562C102.497 7.0044 101.654 6.22313 100.291 6.22313C99.2534 6.28824 98.2803 6.87419 97.9559 8.82737Z" fill="#F2F2F2"/>
</svg>
