<svg width="48" height="48" viewBox="0 0 48 48" fill="none" xmlns="http://www.w3.org/2000/svg">
<path id="Vector" d="M24 18.048C22.8228 18.048 21.672 18.3971 20.6932 19.0511C19.7144 19.7051 18.9516 20.6347 18.5011 21.7223C18.0506 22.8099 17.9327 24.0066 18.1624 25.1612C18.392 26.3158 18.9589 27.3763 19.7913 28.2087C20.6237 29.0411 21.6842 29.608 22.8388 29.8376C23.9934 30.0673 25.1901 29.9494 26.2777 29.4989C27.3653 29.0484 28.2949 28.2856 28.9489 27.3068C29.6029 26.328 29.952 25.1772 29.952 24C29.952 23.2184 29.798 22.4444 29.4989 21.7223C29.1998 21.0001 28.7614 20.344 28.2087 19.7913C27.656 19.2386 26.9999 18.8002 26.2777 18.5011C25.5556 18.202 24.7816 18.048 24 18.048ZM47.832 12.168C47.8194 10.3146 47.4781 8.47817 46.824 6.744C46.3423 5.47502 45.5969 4.32263 44.6372 3.36284C43.6774 2.40306 42.525 1.65772 41.256 1.176C39.5218 0.521913 37.6854 0.180626 35.832 0.168C32.736 -1.60933e-07 31.824 0 24 0C16.176 0 15.264 -1.60933e-07 12.168 0.168C10.3146 0.180626 8.47817 0.521913 6.744 1.176C5.47502 1.65772 4.32263 2.40306 3.36284 3.36284C2.40306 4.32263 1.65772 5.47502 1.176 6.744C0.521913 8.47817 0.180626 10.3146 0.168 12.168C-1.60933e-07 15.264 0 16.176 0 24C0 31.824 -1.60933e-07 32.736 0.168 35.832C0.193833 37.6919 0.534658 39.534 1.176 41.28C1.65559 42.5432 2.40031 43.6889 3.36 44.64C4.31566 45.6055 5.47053 46.3509 6.744 46.824C8.47817 47.4781 10.3146 47.8194 12.168 47.832C15.264 48 16.176 48 24 48C31.824 48 32.736 48 35.832 47.832C37.6854 47.8194 39.5218 47.4781 41.256 46.824C42.5295 46.3509 43.6843 45.6055 44.64 44.64C45.5997 43.6889 46.3444 42.5432 46.824 41.28C47.4775 39.5373 47.8187 37.6931 47.832 35.832C48 32.736 48 31.824 48 24C48 16.176 48 15.264 47.832 12.168ZM41.736 31.368C41.659 32.8491 41.3429 34.3079 40.8 35.688C40.3341 36.8392 39.6414 37.8851 38.7632 38.7632C37.8851 39.6414 36.8392 40.3341 35.688 40.8C34.2948 41.3126 32.8279 41.5963 31.344 41.64H16.656C15.1722 41.5963 13.7052 41.3126 12.312 40.8C11.1218 40.3577 10.0471 39.6521 9.168 38.736C8.2984 37.875 7.62683 36.8349 7.2 35.688C6.68534 34.2963 6.40946 32.8276 6.384 31.344V16.656C6.40946 15.1724 6.68534 13.7037 7.2 12.312C7.64228 11.1218 8.34786 10.0471 9.264 9.168C10.1288 8.3031 11.1678 7.63223 12.312 7.2C13.7052 6.68737 15.1722 6.4037 16.656 6.36H31.344C32.8279 6.4037 34.2948 6.68737 35.688 7.2C36.8782 7.64228 37.9529 8.34786 38.832 9.264C39.7016 10.125 40.3732 11.1651 40.8 12.312C41.3126 13.7052 41.5963 15.1722 41.64 16.656V24C41.64 28.944 41.808 29.448 41.736 31.344V31.368ZM37.896 13.512C37.6103 12.7368 37.1597 12.0327 36.5755 11.4485C35.9913 10.8643 35.2872 10.4138 34.512 10.128C33.4475 9.75902 32.3264 9.5803 31.2 9.6H16.8C15.6678 9.61107 14.5466 9.82232 13.488 10.224C12.7246 10.4968 12.0281 10.9289 11.4446 11.4917C10.8611 12.0545 10.4041 12.735 10.104 13.488C9.75546 14.5569 9.58519 15.6758 9.6 16.8V31.2C9.62379 32.3309 9.83465 33.45 10.224 34.512C10.5098 35.2872 10.9603 35.9913 11.5445 36.5755C12.1287 37.1597 12.8328 37.6103 13.608 37.896C14.632 38.2726 15.7096 38.4832 16.8 38.52H31.2C32.3322 38.5089 33.4534 38.2977 34.512 37.896C35.2872 37.6103 35.9913 37.1597 36.5755 36.5755C37.1597 35.9913 37.6103 35.2872 37.896 34.512C38.2977 33.4534 38.5089 32.3322 38.52 31.2V16.8C38.5207 15.6667 38.309 14.5433 37.896 13.488V13.512ZM24 33.168C22.7972 33.168 21.6062 32.9307 20.4952 32.4697C19.3842 32.0086 18.3751 31.3329 17.5257 30.4813C16.6763 29.6297 16.0033 28.6188 15.5451 27.5066C15.087 26.3945 14.8528 25.2028 14.856 24C14.856 22.1857 15.3943 20.4122 16.4028 18.904C17.4112 17.3959 18.8445 16.2208 20.5211 15.5276C22.1978 14.8344 24.0424 14.6543 25.8214 15.01C27.6005 15.3657 29.234 16.2412 30.5152 17.5258C31.7965 18.8103 32.6677 20.4462 33.0188 22.2262C33.3698 24.0062 33.1848 25.8503 32.4872 27.5251C31.7896 29.1999 30.6108 30.6301 29.1 31.6346C27.5892 32.6391 25.8143 33.1727 24 33.168ZM33.6 16.632C33.0695 16.5758 32.5785 16.3253 32.2216 15.9287C31.8648 15.5321 31.6674 15.0175 31.6674 14.484C31.6674 13.9505 31.8648 13.4359 32.2216 13.0393C32.5785 12.6427 33.0695 12.3922 33.6 12.336C34.1305 12.3922 34.6215 12.6427 34.9784 13.0393C35.3352 13.4359 35.5326 13.9505 35.5326 14.484C35.5326 15.0175 35.3352 15.5321 34.9784 15.9287C34.6215 16.3253 34.1305 16.5758 33.6 16.632Z" fill="#F2F2F2"/>
</svg>
