<svg width="48" height="48" viewBox="0 0 48 48" fill="none" xmlns="http://www.w3.org/2000/svg">
<path id="Vector" d="M43.5 0H4.5C2.025 0 0 2.025 0 4.5V43.5C0 45.975 2.025 48 4.5 48H43.5C45.975 48 48 45.975 48 43.5V4.5C48 2.025 45.975 0 43.5 0ZM18 39H12V18H18V39ZM15 15C14.2044 15 13.4413 14.6839 12.8787 14.1213C12.3161 13.5587 12 12.7956 12 12C12 11.2044 12.3161 10.4413 12.8787 9.87868C13.4413 9.31607 14.2044 9 15 9C15.7956 9 16.5587 9.31607 17.1213 9.87868C17.6839 10.4413 18 11.2044 18 12C18 12.7956 17.6839 13.5587 17.1213 14.1213C16.5587 14.6839 15.7956 15 15 15ZM39 39H33V27C33 26.2044 32.6839 25.4413 32.1213 24.8787C31.5587 24.3161 30.7956 24 30 24C29.2044 24 28.4413 24.3161 27.8787 24.8787C27.3161 25.4413 27 26.2044 27 27V39H21V18H27V21.723C28.236 20.025 30.132 18 32.25 18C35.982 18 39 21.357 39 25.5V39Z" fill="#F2F2F2"/>
</svg>
